<?xml version="1.0" encoding="UTF-8"?>
<svg width="59px" height="55px" viewBox="0 0 59 55" version="1.1" xmlns="http://www.w3.org/2000/svg" xmlns:xlink="http://www.w3.org/1999/xlink">
    <!-- Generator: Sketch 51.3 (57544) - http://www.bohemiancoding.com/sketch -->
    <title>icon_prototyping</title>
    <desc>Created with Sketch.</desc>
    <defs></defs>
    <g id="Page-1" stroke="none" stroke-width="1" fill="none" fill-rule="evenodd">
        <g id="Artboard-6" transform="translate(-389.000000, -257.000000)" fill-rule="nonzero">
            <g id="icon_prototyping" transform="translate(389.000000, 257.000000)">
                <polygon id="Shape" fill="#E3E3E3" points="39.4889766 52.2370657 19.5149414 52.2370657 21.2497949 41.195 37.7540078 41.195"></polygon>
                <path d="M42.1981367,54.9780932 L16.8057812,54.9780932 C16.1328125,54.9780932 15.5821074,54.4212182 15.5821074,53.7407097 L15.5821074,52.6274258 C15.5821074,51.9469174 16.1328125,51.3900424 16.8057812,51.3900424 L42.198252,51.3900424 C42.8712207,51.3900424 43.4219258,51.9469174 43.4219258,52.6274258 L43.4219258,53.7407097 C43.4218105,54.4212182 42.8712207,54.9780932 42.1981367,54.9780932 Z" id="Shape" fill="#717171"></path>
                <g id="Group" opacity="0.1" transform="translate(20.742188, 41.133475)" fill="#000000">
                    <polygon id="Shape" points="17.0118203 0.0615254237 0.507607422 0.0615254237 0.0373359375 3.05518008 17.4820918 3.05518008"></polygon>
                </g>
                <path d="M57.803291,41.8474258 L1.20062695,41.8474258 C0.539757812,41.8474258 0.00391796875,41.3056992 0.00391796875,40.6373093 L0.00391796875,1.23202331 C0.00391796875,0.56375 0.539642578,0.0219067797 1.20062695,0.0219067797 L57.803291,0.0219067797 C58.4641602,0.0219067797 59,0.563633475 59,1.23202331 L59,40.6373093 C59,41.3055826 58.4641602,41.8474258 57.803291,41.8474258 Z" id="Shape" fill="#E3E3E3"></path>
                <path d="M0.00391796875,36.9735169 L0.00391796875,40.6373093 C0.00391796875,41.3055826 0.539642578,41.8474258 1.20062695,41.8474258 L57.803291,41.8474258 C58.4641602,41.8474258 59,41.3056992 59,40.6373093 L59,36.9735169 L0.00391796875,36.9735169 Z" id="Shape" fill="#AEAEAE"></path>
                <rect id="Rectangle-path" fill="#F23466" x="16.3501445" y="6.59988347" width="17.6090801" height="17.8063665"></rect>
                <rect id="Rectangle-path" fill="#65CDEF" x="25.1553184" y="14.6360593" width="17.6090801" height="17.8063665"></rect>
                <rect id="Rectangle-path" fill="#F23466" x="49.1748867" y="7.94621822" width="3.49067969" height="11.0032627"></rect>
                <g id="Group" transform="translate(48.167969, 21.673729)" fill="#65CDEF">
                    <path d="M4.49736719,1.87920551 L1.0070332,1.87920551 C0.511294922,1.87920551 0.109472656,1.47299788 0.109472656,0.971588983 C0.109472656,0.470180085 0.511179688,0.0639724576 1.0070332,0.0639724576 L4.49736719,0.0639724576 C4.99310547,0.0639724576 5.39492773,0.470180085 5.39492773,0.971588983 C5.39492773,1.47299788 4.99310547,1.87920551 4.49736719,1.87920551 Z" id="Shape"></path>
                    <path d="M4.49736719,5.57457627 L1.0070332,5.57457627 C0.511294922,5.57457627 0.109472656,5.16836864 0.109472656,4.66695975 C0.109472656,4.16555085 0.511179688,3.75934322 1.0070332,3.75934322 L4.49736719,3.75934322 C4.99310547,3.75934322 5.39492773,4.16555085 5.39492773,4.66695975 C5.39492773,5.16836864 4.99310547,5.57457627 4.49736719,5.57457627 Z" id="Shape"></path>
                    <path d="M4.49736719,9.27006356 L1.0070332,9.27006356 C0.511294922,9.27006356 0.109472656,8.86385593 0.109472656,8.36244703 C0.109472656,7.86103814 0.511179688,7.45483051 1.0070332,7.45483051 L4.49736719,7.45483051 C4.99310547,7.45483051 5.39492773,7.86103814 5.39492773,8.36244703 C5.39492773,8.86385593 4.99310547,9.27006356 4.49736719,9.27006356 Z" id="Shape"></path>
                </g>
                <rect id="Rectangle-path" fill="#F23466" x="5.77635352" y="6.06258475" width="4.48757227" height="4.53784958"></rect>
                <rect id="Rectangle-path" fill="#65CDEF" x="5.77635352" y="13.1416208" width="4.48757227" height="4.53784958"></rect>
                <rect id="Rectangle-path" fill="#FFC433" x="5.77635352" y="20.2205403" width="4.48757227" height="4.53784958"></rect>
                <rect id="Rectangle-path" fill="#97D4AC" x="5.77635352" y="27.2995763" width="4.48757227" height="4.53784958"></rect>
                <path d="M57.799373,0.0219067797 L55.2218105,0.0219067797 L55.2218105,35.7636335 C55.2218105,36.4319068 54.6860859,36.97375 54.0251016,36.97375 L0,36.97375 L0,40.6375424 C0,41.3058157 0.535724609,41.8476589 1.19670898,41.8476589 L57.799373,41.8476589 C58.4602422,41.8476589 58.996082,41.3059322 58.996082,40.6375424 L58.996082,1.23202331 C58.996082,0.563633475 58.4602422,0.0219067797 57.799373,0.0219067797 Z" id="Shape" fill="#000000" opacity="0.2"></path>
                <path d="M42.4231895,51.4119492 C42.4369023,51.4858263 42.4449687,51.5618008 42.4449687,51.6395233 L42.4449687,52.7528072 C42.4449687,53.4333157 41.8942637,53.9901907 41.2212949,53.9901907 L15.8289395,53.9901907 C15.7519629,53.9901907 15.6769453,53.9820339 15.6038867,53.9681674 C15.7103633,54.5408898 16.2097891,54.9779767 16.8057812,54.9779767 L42.198252,54.9779767 C42.8712207,54.9779767 43.4219258,54.4211017 43.4219258,53.7405932 L43.4219258,52.6273093 C43.4219258,52.0246398 42.9895664,51.5198517 42.4231895,51.4119492 Z" id="Shape" fill="#000000" opacity="0.1"></path>
                <polygon id="Shape" fill="#FFFFFF" opacity="0.2" points="26.9666875 36.9735169 16.0624043 36.9735169 31.4693555 0.0219067797 42.3735234 0.0219067797"></polygon>
            </g>
        </g>
    </g>
</svg>