<?xml version="1.0" encoding="UTF-8"?>
<svg width="55px" height="55px" viewBox="0 0 55 55" version="1.1" xmlns="http://www.w3.org/2000/svg" xmlns:xlink="http://www.w3.org/1999/xlink">
    <!-- Generator: Sketch 51.3 (57544) - http://www.bohemiancoding.com/sketch -->
    <title>icon_qualityassurance</title>
    <desc>Created with Sketch.</desc>
    <defs></defs>
    <g id="Page-1" stroke="none" stroke-width="1" fill="none" fill-rule="evenodd">
        <g id="Artboard-6" transform="translate(-547.000000, -181.000000)" fill-rule="nonzero">
            <g id="icon_qualityassurance" transform="translate(547.000000, 181.000000)">
                <polygon id="Shape" fill="#E3E3E3" points="29.9054191 32.2735686 40.2677193 42.6968235 42.6759259 40.2743431 32.6379435 30.1774216"></polygon>
                <path d="M54.5631092,49.5526275 L49.6728265,54.4716765 C49.2333626,54.9137255 48.520614,54.9137255 48.0811501,54.4716765 L38.3507602,44.684049 C37.9112963,44.242 37.9112963,43.5250588 38.3507602,43.0830098 L43.2410429,38.1639608 C43.6805068,37.7219118 44.3932554,37.7219118 44.8327193,38.1639608 L54.5631092,47.9515882 C55.0026803,48.3936373 55.0026803,49.1103627 54.5631092,49.5526275 Z" id="Shape" fill="#CD315B"></path>
                <path d="M54.0896589,47.565402 L49.6729337,52.0081078 C49.2334698,52.4501569 48.5207212,52.4501569 48.0812573,52.0081078 L38.8245322,42.6969314 L38.3510819,43.1732745 C37.9116179,43.6153235 37.9116179,44.3322647 38.3510819,44.7743137 L48.0814717,54.5619412 C48.5209357,55.0039902 49.2336842,55.0039902 49.6731481,54.5619412 L54.5634308,49.6428922 C55.0028947,49.2008431 55.0028947,48.483902 54.5634308,48.0418529 L54.0896589,47.565402 Z" id="Shape" fill="#000000" opacity="0.1"></path>
                <ellipse id="Oval" fill="#CD315B" cx="18.7676511" cy="18.9844902" rx="18.7676511" ry="18.878049"></ellipse>
                <path d="M32.050848,5.63652941 C31.8229142,5.4072549 31.5905848,5.18531373 31.3541813,4.97027451 C38.0136842,12.3806078 37.7930409,23.8236275 30.6918226,30.966402 C23.5906043,38.1093922 12.2147173,38.3313333 4.8477193,31.6326569 C5.06150097,31.870451 5.28214425,32.1041471 5.51007797,32.3333137 C12.83923,39.7055784 24.7219103,39.7055784 32.050848,32.3333137 C39.3798928,24.9612647 39.3798928,13.0086863 32.050848,5.63652941 Z" id="Shape" fill="#000000" opacity="0.1"></path>
                <ellipse id="Oval" fill="#E3E3E3" cx="18.7676511" cy="18.8588529" rx="14.2250585" ry="14.3087353"></ellipse>
                <g id="Group" transform="translate(17.046784, 9.490196)" fill="#FFC433">
                    <path d="M2.47971735,11.4472255 L1.71196881,11.4472255 C1.07780702,11.4472255 0.555682261,10.9590196 0.526734893,10.3389216 L0.0421345029,1.32064706 C0.0111500975,0.659029412 0.5508577,0.106117647 1.22736842,0.106117647 L2.96431774,0.106117647 C3.64093567,0.106117647 4.18053606,0.659029412 4.14955166,1.32064706 L3.66495127,10.3389216 C3.6360039,10.9590196 3.11398635,11.4472255 2.47971735,11.4472255 Z" id="Shape"></path>
                    <ellipse id="Oval" cx="2.09557505" cy="16.2439804" rx="1.92349903" ry="1.88283333"></ellipse>
                </g>
                <path d="M28.7116082,8.59153922 C27.8328947,7.70765686 26.8678752,6.96407843 25.8437817,6.35994118 L6.37592593,25.9423137 C6.97663743,26.9723235 7.71586745,27.9432353 8.59447368,28.8270098 C10.0880507,30.3293725 11.8313255,31.4271078 13.6897466,32.1216176 L31.9870565,13.7166765 C31.296501,11.8473235 30.205078,10.093902 28.7116082,8.59153922 Z" id="Shape" fill="#FFFFFF" opacity="0.2"></path>
            </g>
        </g>
    </g>
</svg>