<?xml version="1.0" encoding="UTF-8"?>
<svg width="55px" height="55px" viewBox="0 0 55 55" version="1.1" xmlns="http://www.w3.org/2000/svg" xmlns:xlink="http://www.w3.org/1999/xlink">
    <!-- Generator: Sketch 51.3 (57544) - http://www.bohemiancoding.com/sketch -->
    <title>icon_usertesting</title>
    <desc>Created with Sketch.</desc>
    <defs></defs>
    <g id="Page-1" stroke="none" stroke-width="1" fill="none" fill-rule="evenodd">
        <g id="Artboard-6" transform="translate(-497.000000, -181.000000)" fill-rule="nonzero">
            <g id="icon_usertesting" transform="translate(497.000000, 181.000000)">
                <path d="M52.6312402,12.1820703 L52.7878613,12.1820703 C54.0002246,12.1820703 54.9830273,11.1992676 54.9830273,9.9869043 C54.9830273,8.77454102 54.0002246,7.79173828 52.7878613,7.79173828 L52.6640039,7.79173828 L52.6640039,6.72922852 C52.6640039,3.05013672 49.6539355,0.0400683594 45.9748437,0.0400683594 C42.295752,0.0400683594 39.2856836,3.05013672 39.2856836,6.72922852 L39.2856836,7.79173828 L38.9540723,7.79173828 C37.741709,7.79173828 36.7589062,8.77454102 36.7589062,9.9869043 C36.7589062,11.1992676 37.741709,12.1820703 38.9540723,12.1820703 L39.3183398,12.1820703 C39.5688477,14.72625 41.2607422,16.8624414 43.5601074,17.7600586 L43.5601074,19.6676563 L43.4409766,19.6676563 L40.228418,19.6676563 C38.9184082,19.6676563 37.856543,20.7296289 37.856543,22.0394238 L37.856543,25.7306543 C37.856543,26.4808887 38.464873,27.0892188 39.2151074,27.0892188 L52.123457,27.0892188 C52.8736914,27.0892188 53.4820215,26.4808887 53.4820215,25.7306543 L53.4820215,22.0394238 C53.4820215,20.7294141 52.4200488,19.6676563 51.1101465,19.6676563 L47.8974805,19.6676563 L47.879541,19.6676563 L47.879541,17.936123 C50.4358594,17.1711719 52.3625781,14.9112305 52.6312402,12.1820703 Z" id="Shape" fill="#FFC433"></path>
                <path d="M15.9425879,12.1820703 L16.0460352,12.1820703 C17.2583984,12.1820703 18.2412012,11.1992676 18.2412012,9.9869043 C18.2412012,8.77454102 17.2583984,7.79173828 16.0460352,7.79173828 L15.9752441,7.79173828 L15.9752441,6.72922852 C15.9752441,3.05013672 12.9651758,0.0400683594 9.28608398,0.0400683594 C5.60699219,0.0400683594 2.59692383,3.05013672 2.59692383,6.72922852 L2.59692383,7.79173828 L2.21213867,7.79173828 C0.999775391,7.79173828 0.0169726562,8.77454102 0.0169726562,9.9869043 C0.0169726562,11.1992676 0.999775391,12.1820703 2.21213867,12.1820703 L2.6296875,12.1820703 C2.87826172,14.7069141 4.54577148,16.8310742 6.81817383,17.7407227 L6.81817383,19.6677637 L6.69904297,19.6677637 L3.48637695,19.6677637 C2.17636719,19.6677637 1.11450195,20.7297363 1.11450195,22.0395312 L1.11450195,25.7307617 C1.11450195,26.4809961 1.72283203,27.0893262 2.47306641,27.0893262 L15.3813086,27.0893262 C16.131543,27.0893262 16.739873,26.4809961 16.739873,25.7307617 L16.739873,22.0395312 C16.739873,20.7295215 15.6779004,19.6677637 14.367998,19.6677637 L11.1554395,19.6677637 L11.1375,19.6677637 L11.1375,17.9528809 C13.7203516,17.2035059 15.6719922,14.9302441 15.9425879,12.1820703 Z" id="Shape" fill="#F23466"></path>
                <path d="M34.1805664,40.0928516 L34.3371875,40.0928516 C35.5495508,40.0928516 36.5323535,39.1100488 36.5323535,37.8976855 C36.5323535,36.6853223 35.5495508,35.7025195 34.3371875,35.7025195 L34.2133301,35.7025195 L34.2133301,34.6400098 C34.2133301,30.960918 31.2032617,27.9508496 27.5241699,27.9508496 C23.8450781,27.9508496 20.8350098,30.960918 20.8350098,34.6400098 L20.8350098,35.7025195 L20.5033984,35.7025195 C19.2910352,35.7025195 18.3082324,36.6853223 18.3082324,37.8976855 C18.3082324,39.1100488 19.2910352,40.0928516 20.5033984,40.0928516 L20.867666,40.0928516 C21.1181738,42.6370313 22.8100684,44.7732227 25.1094336,45.6708398 L25.1094336,47.5783301 L24.9903027,47.5783301 L21.7776367,47.5783301 C20.467627,47.5783301 19.4057617,48.6403027 19.4057617,49.9502051 L19.4057617,53.6414355 C19.4057617,54.3916699 20.0140918,55 20.7643262,55 L33.6725684,55 C34.4228027,55 35.0311328,54.3916699 35.0311328,53.6414355 L35.0311328,49.9502051 C35.0311328,48.6401953 33.9691602,47.5783301 32.6592578,47.5783301 L29.4465918,47.5783301 L29.4285449,47.5783301 L29.4285449,45.8466895 C31.9851855,45.0819531 33.9119043,42.8219043 34.1805664,40.0928516 Z" id="Shape" fill="#65CDEF"></path>
                <g id="Group" transform="translate(5.908203, 8.593750)" fill="#CD315B">
                    <path d="M3.31342773,6.52416016 C2.24780273,6.52416016 1.24491211,6.11166016 0.487158203,5.36121094 C0.153935547,5.03131836 0.151357422,4.49367188 0.481357422,4.16044922 C0.811357422,3.82722656 1.34900391,3.82464844 1.68211914,4.15475586 C2.59058594,5.05441406 4.06162109,5.04753906 4.9612793,4.13885742 C5.2912793,3.80563477 5.82892578,3.80305664 6.16204102,4.13316406 C6.49526367,4.46305664 6.4978418,5.00070313 6.1678418,5.33392578 C5.41288086,6.09619141 4.40601562,6.51889648 3.33308594,6.52405273 C3.32664062,6.52416016 3.31998047,6.52416016 3.31342773,6.52416016 Z" id="Shape"></path>
                    <path d="M0.851748047,2.80317383 C0.382851563,2.80317383 0.00268554688,2.42311523 0.00268554688,1.95411133 L0.00268554688,0.899765625 C0.00268554688,0.430761719 0.382851563,0.050703125 0.851748047,0.050703125 C1.32064453,0.050703125 1.70081055,0.430761719 1.70081055,0.899765625 L1.70081055,1.95411133 C1.70081055,2.42300781 1.32064453,2.80317383 0.851748047,2.80317383 Z" id="Shape"></path>
                    <path d="M5.62557617,2.80317383 C5.15667969,2.80317383 4.77651367,2.42311523 4.77651367,1.95411133 L4.77651367,0.899765625 C4.77651367,0.430761719 5.15667969,0.050703125 5.62557617,0.050703125 C6.09447266,0.050703125 6.47463867,0.430761719 6.47463867,0.899765625 L6.47463867,1.95411133 C6.47463867,2.42300781 6.09447266,2.80317383 5.62557617,2.80317383 Z" id="Shape"></path>
                </g>
                <g id="Group" transform="translate(2.578125, 0.000000)" fill="#342E30">
                    <path d="M4.18494141,4.66866211 L4.33307617,4.48862305 C5.70216797,5.86963867 8.45270508,7.79549805 13.1453223,7.79549805 L13.4002344,7.79549805 L13.4002344,6.68916016 C13.4002344,3.01006836 10.390166,0 6.71107422,0 C3.03241211,0 0.0225585938,3.00953125 0.0219140625,6.68797852 C2.84861328,6.66294922 4.18494141,4.66866211 4.18494141,4.66866211 Z" id="Shape"></path>
                    <g opacity="0.1" transform="translate(5.371094, 0.000000)" id="Shape">
                        <path d="M6.4187793,19.6677637 L3.91595703,19.6677637 C5.2259668,19.6677637 6.28783203,20.7297363 6.28783203,22.0395312 L6.28783203,25.7307617 C6.28783203,26.4809961 5.67950195,27.0893262 4.92926758,27.0893262 L7.43208984,27.0893262 C8.18232422,27.0893262 8.7906543,26.4809961 8.7906543,25.7307617 L8.7906543,22.0395312 C8.79076172,20.7296289 7.72878906,19.6677637 6.4187793,19.6677637 Z"></path>
                        <path d="M8.09670898,7.79163086 L8.02591797,7.79163086 L8.02591797,6.72912109 C8.02591797,3.0500293 5.01584961,0.0399609375 1.33675781,0.0399609375 C1.33203125,0.0399609375 1.32741211,0.0402832031 1.32257812,0.0402832031 C1.31774414,0.0402832031 1.31323242,0.0399609375 1.30839844,0.0399609375 C0.885800781,0.0399609375 0.472548828,0.0814257812 0.0712207031,0.157373047 C3.16432617,0.742070312 5.52320312,3.47273438 5.52320312,6.72912109 L5.52320312,7.79163086 L5.59399414,7.79163086 C6.80635742,7.79163086 7.78916016,8.77443359 7.78916016,9.98679688 C7.78916016,11.1991602 6.80635742,12.1819629 5.59399414,12.1819629 L5.49054687,12.1819629 C5.21995117,14.9300293 3.26841797,17.2035059 0.685458984,17.9527734 L0.685458984,19.6676563 L0.703398438,19.6676563 L3.18817383,19.6676563 L3.18817383,17.9527734 C5.77102539,17.2035059 7.72255859,14.9301367 7.99326172,12.1819629 L8.09670898,12.1819629 C9.30907227,12.1819629 10.291875,11.1991602 10.291875,9.98679687 C10.291875,8.77454102 9.30907227,7.79163086 8.09670898,7.79163086 Z"></path>
                    </g>
                </g>
                <g id="Group" opacity="0.1" transform="translate(42.861328, 12.460937)" fill="#000000">
                    <path d="M3.10223633,2.65697266 C2.03661133,2.65697266 1.03361328,2.24447266 0.275859375,1.49402344 C-0.0572558594,1.16413086 -0.0598339844,0.626484375 0.270166016,0.293261719 C0.600058594,-0.0398535156 1.13759766,-0.0426464844 1.47092773,0.287568359 C2.37950195,1.18733398 3.85053711,1.18035156 4.75008789,0.271669922 C5.07998047,-0.0614453125 5.61762695,-0.0641308594 5.95084961,0.265976562 C6.28396484,0.595869141 6.28654297,1.13351562 5.95654297,1.46673828 C5.20147461,2.22900391 4.1947168,2.65170898 3.12178711,2.65686523 C3.11544922,2.65697266 3.10878906,2.65697266 3.10223633,2.65697266 Z" id="Shape"></path>
                </g>
                <g id="Group" opacity="0.1" transform="translate(42.646484, 8.593750)" fill="#000000">
                    <path d="M0.855400391,2.80317383 C0.386396484,2.80317383 0.00633789063,2.42311523 0.00633789063,1.95411133 L0.00633789063,0.899765625 C0.00633789063,0.430761719 0.386396484,0.050703125 0.855400391,0.050703125 C1.3244043,0.050703125 1.70446289,0.430761719 1.70446289,0.899765625 L1.70446289,1.95411133 C1.70457031,2.42300781 1.32429687,2.80317383 0.855400391,2.80317383 Z" id="Shape"></path>
                </g>
                <g id="Group" opacity="0.1" transform="translate(47.373047, 8.593750)" fill="#000000">
                    <path d="M0.902666016,2.80317383 C0.433662109,2.80317383 0.0536035156,2.42311523 0.0536035156,1.95411133 L0.0536035156,0.899765625 C0.0536035156,0.430761719 0.433662109,0.050703125 0.902666016,0.050703125 C1.37166992,0.050703125 1.75172852,0.430761719 1.75172852,0.899765625 L1.75172852,1.95411133 C1.75183594,2.42300781 1.37166992,2.80317383 0.902666016,2.80317383 Z" id="Shape"></path>
                </g>
                <path d="M43.5407715,4.66984375 L43.6793457,4.48024414 C45.0451074,5.8619043 47.7975781,7.79667969 52.5010449,7.79667969 L52.7027832,7.79667969 L52.7027832,6.6903418 C52.7027832,3.01125 49.6927148,0.00118164062 46.013623,0.00118164062 C42.3345312,0.00118164062 39.3244629,3.01125 39.3244629,6.6903418 C42.1881152,6.6903418 43.5407715,4.66984375 43.5407715,4.66984375 Z" id="Shape" fill="#CD315B"></path>
                <g id="Group" transform="translate(20.732422, 22.343750)" fill="#3A9CB4">
                    <path d="M6.78046875,20.6850488 C5.71484375,20.6850488 4.7118457,20.2724414 3.95419922,19.5219922 C3.62097656,19.1920996 3.61839844,18.6544531 3.94839844,18.3212305 C4.27839844,17.9881152 4.81604492,17.9854297 5.14916016,18.3155371 C5.58926758,18.7514551 6.17557617,18.9875684 6.79196289,18.9869238 C7.41135742,18.9840234 7.99250977,18.7398535 8.42821289,18.2999609 C8.75832031,17.9665234 9.29585937,17.9641602 9.62897461,18.2940527 C9.96219727,18.6240527 9.96477539,19.1616992 9.63488281,19.4948145 C8.87970703,20.2571875 7.87294922,20.6798926 6.80001953,20.6850488 C6.79368164,20.6850488 6.78702148,20.6850488 6.78046875,20.6850488 Z" id="Shape"></path>
                    <path d="M4.31878906,16.9638477 C3.84989258,16.9638477 3.46972656,16.5837891 3.46972656,16.1147852 L3.46972656,15.0604395 C3.46972656,14.5914355 3.84989258,14.211377 4.31878906,14.211377 C4.78768555,14.211377 5.16785156,14.5914355 5.16785156,15.0604395 L5.16785156,16.1147852 C5.16785156,16.5836816 4.78768555,16.9638477 4.31878906,16.9638477 Z" id="Shape"></path>
                    <path d="M9.09261719,16.9638477 C8.62361328,16.9638477 8.24355469,16.5837891 8.24355469,16.1147852 L8.24355469,15.0604395 C8.24355469,14.5914355 8.62361328,14.211377 9.09261719,14.211377 C9.56162109,14.211377 9.94167969,14.5914355 9.94167969,15.0604395 L9.94167969,16.1147852 C9.94167969,16.5836816 9.56162109,16.9638477 9.09261719,16.9638477 Z" id="Shape"></path>
                    <path d="M13.4567383,13.3587695 L13.4567383,12.2962598 C13.4567383,8.61716797 10.4466699,5.60709961 6.76757812,5.60709961 C3.08848633,5.60709961 0.0784179687,8.61716797 0.0784179687,12.2962598 C2.94196289,12.2962598 4.29472656,10.2757617 4.29472656,10.2757617 L4.46842773,10.1215039 C5.84600586,11.5005859 8.59149414,13.4025977 13.2551074,13.4025977 L13.4567383,13.3587695 Z" id="Shape"></path>
                    <circle id="Oval" cx="7.01819336" cy="2.86644531" r="2.81348633"></circle>
                </g>
                <g id="Group" opacity="0.1" transform="translate(26.318359, 22.343750)" fill="#342E30">
                    <path d="M6.34100586,25.2070801 L4.22307617,25.2070801 C5.53308594,25.2070801 6.59495117,26.2690527 6.59495117,27.5789551 L6.59495117,31.2701855 C6.59495117,32.0204199 5.98662109,32.62875 5.23638672,32.62875 L7.35431641,32.62875 C8.10455078,32.62875 8.71288086,32.0204199 8.71288086,31.2701855 L8.71288086,27.5789551 C8.71288086,26.2690527 7.6509082,25.2070801 6.34100586,25.2070801 Z" id="Shape"></path>
                    <path d="M8.01893555,13.3310547 L7.89507812,13.3310547 L7.89507812,12.2685449 C7.89507812,8.82008789 5.25045898,5.95944336 1.88922852,5.6144043 C3.22555664,5.39601562 4.24574219,4.23661133 4.24574219,2.8384082 C4.24574219,1.28455078 2.98611328,0.024921875 1.43225586,0.024921875 C1.05756836,0.024921875 0.700175781,0.0987207031 0.373291016,0.231708984 C1.40207031,0.650117188 2.12770508,1.65923828 2.12770508,2.83819336 C2.12770508,4.01811523 1.39992188,5.025625 0.369853516,5.44328125 C0.517128906,5.5034375 0.670527344,5.55145508 0.829189453,5.58604492 C0.583300781,5.59603516 0.341171875,5.62084961 0.102587891,5.65694336 C3.30461914,6.1496875 5.77704102,8.93395508 5.77704102,12.2682227 L5.77704102,13.3307324 L5.90089844,13.3307324 C7.11326172,13.3307324 8.09606445,14.3135352 8.09606445,15.5258984 C8.09606445,16.7382617 7.11326172,17.7210645 5.90089844,17.7210645 L5.74427734,17.7210645 C5.47550781,20.4501172 3.54889648,22.710166 0.992363281,23.4751172 L0.992363281,25.2066504 L1.01041016,25.2066504 L3.11040039,25.2066504 L3.11040039,23.4751172 C5.66671875,22.710166 7.59354492,20.4502246 7.86231445,17.7210645 L8.01893555,17.7210645 C9.23129883,17.7210645 10.2141016,16.7382617 10.2141016,15.5258984 C10.2141016,14.3135352 9.23129883,13.3310547 8.01893555,13.3310547 Z" id="Shape"></path>
                </g>
                <g id="Group" transform="translate(2.148438, 2.900391)" fill="#65CDEF">
                    <path d="M31.0353613,1.79426758 L19.8800293,1.79426758 C19.4111328,1.79426758 19.0309668,1.41420898 19.0309668,0.945205078 C19.0309668,0.476201172 19.4111328,0.0961425781 19.8800293,0.0961425781 L31.0354688,0.0961425781 C31.5044727,0.0961425781 31.8845313,0.476201172 31.8845313,0.945205078 C31.8845313,1.41420898 31.5044727,1.79426758 31.0353613,1.79426758 Z" id="Shape"></path>
                    <path d="M37.3365137,43.9468262 C36.8675098,43.9468262 36.4874512,43.5667676 36.4874512,43.0977637 C36.4874512,42.6287598 36.8675098,42.2487012 37.3365137,42.2487012 C43.6882617,42.2487012 48.8558984,37.0811719 48.8558984,30.7294238 C48.8558984,30.2604199 49.235957,29.8803613 49.7049609,29.8803613 C50.1739648,29.8803613 50.5540234,30.2604199 50.5540234,30.7294238 C50.5540234,38.0175684 44.6246582,43.9468262 37.3365137,43.9468262 Z" id="Shape"></path>
                    <path d="M13.26875,43.9468262 C5.98060547,43.9468262 0.0512402344,38.0175684 0.0512402344,30.7294238 C0.0512402344,30.2604199 0.43140625,29.8803613 0.900302734,29.8803613 C1.36919922,29.8803613 1.74936523,30.2604199 1.74936523,30.7294238 C1.74936523,37.0810645 6.91700195,42.2487012 13.26875,42.2487012 C13.7376465,42.2487012 14.1178125,42.6287598 14.1178125,43.0977637 C14.1178125,43.5667676 13.7376465,43.9468262 13.26875,43.9468262 Z" id="Shape"></path>
                </g>
                <g id="Group" opacity="0.1" transform="translate(44.687500, 0.000000)" fill="#342E30">
                    <path d="M6.41469727,19.6677637 L3.911875,19.6677637 C5.22188477,19.6677637 6.28375,20.7297363 6.28375,22.0395312 L6.28375,25.7307617 C6.28375,26.4809961 5.67541992,27.0893262 4.92518555,27.0893262 L7.42800781,27.0893262 C8.17824219,27.0893262 8.78657227,26.4809961 8.78657227,25.7307617 L8.78657227,22.0395312 C8.78657227,20.7296289 7.72470703,19.6677637 6.41469727,19.6677637 Z" id="Shape"></path>
                    <path d="M8.09262695,7.79163086 L8.02183594,7.79163086 L8.02183594,6.72912109 C8.02183594,3.0500293 5.01176758,0.0399609375 1.33267578,0.0399609375 C1.32794922,0.0399609375 1.32333008,0.0402832031 1.31849609,0.0402832031 C1.31376953,0.0402832031 1.30915039,0.0399609375 1.30431641,0.0399609375 C0.88171875,0.0399609375 0.468466797,0.0814257812 0.0671386719,0.157373047 C3.16024414,0.742070312 5.51912109,3.47273438 5.51912109,6.72912109 L5.51912109,7.79163086 L5.58991211,7.79163086 C6.80227539,7.79163086 7.78507812,8.77443359 7.78507812,9.98679688 C7.78507812,11.1991602 6.80227539,12.1819629 5.58991211,12.1819629 L5.48646484,12.1819629 C5.21586914,14.9300293 3.26433594,17.2035059 0.681376953,17.9527734 L0.681376953,19.6676563 L0.699316406,19.6676563 L3.1840918,19.6676563 L3.1840918,17.9527734 C5.76694336,17.2035059 7.71847656,14.9301367 7.98917969,12.1819629 L8.09262695,12.1819629 C9.30499023,12.1819629 10.287793,11.1991602 10.287793,9.98679687 C10.287793,8.77454102 9.30499023,7.79163086 8.09262695,7.79163086 Z" id="Shape"></path>
                </g>
            </g>
        </g>
    </g>
</svg>