<?xml version="1.0" encoding="UTF-8"?>
<svg width="44px" height="55px" viewBox="0 0 44 55" version="1.1" xmlns="http://www.w3.org/2000/svg" xmlns:xlink="http://www.w3.org/1999/xlink">
    <!-- Generator: Sketch 51.3 (57544) - http://www.bohemiancoding.com/sketch -->
    <title>icon_brainstorm</title>
    <desc>Created with Sketch.</desc>
    <defs></defs>
    <g id="Page-1" stroke="none" stroke-width="1" fill="none" fill-rule="evenodd">
        <g id="Artboard-6" transform="translate(-465.000000, -256.000000)" fill-rule="nonzero">
            <g id="icon_brainstorm" transform="translate(465.000000, 256.000000)">
                <polygon id="Shape" fill="#FFC433" points="17.0592002 23.6300565 15.0351499 34.7066785 22.075094 34.7066785 18.1221479 44.6964697 28.9365173 31.4407933 25.867998 31.4407933 27.6557551 23.6300565"></polygon>
                <g id="Group" opacity="0.1" transform="translate(16.354675, 23.580780)" fill="#000000">
                    <polygon id="Shape" points="11.2885488 0.0492764282 0.691887703 0.0492764282 0.0378069106 3.62879654 10.4691159 3.62879654"></polygon>
                </g>
                <g id="Group" transform="translate(1.805386, 23.898010)" fill="#E3E3E3">
                    <path d="M5.09607419,6.70518951 C4.63495732,6.70518951 4.26113618,6.33297272 4.26113618,5.87383484 L4.26113618,4.14292099 C4.26113618,3.68378311 4.63495732,3.31156631 5.09607419,3.31156631 C5.55719106,3.31156631 5.9310122,3.68378311 5.9310122,4.14292099 L5.9310122,5.87383484 C5.9310122,6.33297272 5.55719106,6.70518951 5.09607419,6.70518951 Z" id="Shape"></path>
                    <path d="M5.09607419,14.368943 C4.63495732,14.368943 4.26113618,13.9967262 4.26113618,13.5375883 L4.26113618,11.8066745 C4.26113618,11.3475366 4.63495732,10.9753198 5.09607419,10.9753198 C5.55719106,10.9753198 5.9310122,11.3475366 5.9310122,11.8066745 L5.9310122,13.5375883 C5.9310122,13.9967262 5.55719106,14.368943 5.09607419,14.368943 Z" id="Shape"></path>
                    <path d="M9.59785772,10.5371191 C9.13674085,10.5371191 8.76291972,10.1649023 8.76291972,9.70576447 L8.76291972,7.97485062 C8.76291972,7.51571274 9.13674085,7.14349594 9.59785772,7.14349594 C10.0589746,7.14349594 10.4327957,7.51571274 10.4327957,7.97485062 L10.4327957,9.70576447 C10.4329019,10.1649023 10.0590808,10.5371191 9.59785772,10.5371191 Z" id="Shape"></path>
                    <path d="M0.954093496,10.5371191 C0.492976626,10.5371191 0.119155488,10.1649023 0.119155488,9.70576447 L0.119155488,7.97485062 C0.119155488,7.51571274 0.492976626,7.14349594 0.954093496,7.14349594 C1.41521037,7.14349594 1.7890315,7.51571274 1.7890315,7.97485062 L1.7890315,9.70576447 C1.7890315,10.1649023 1.41521037,10.5371191 0.954093496,10.5371191 Z" id="Shape"></path>
                    <path d="M5.09607419,22.3056203 C4.63495732,22.3056203 4.26113618,21.9334035 4.26113618,21.4742656 L4.26113618,19.7434575 C4.26113618,19.2843196 4.63495732,18.9121028 5.09607419,18.9121028 C5.55719106,18.9121028 5.9310122,19.2843196 5.9310122,19.7434575 L5.9310122,21.4743713 C5.9310122,21.9335092 5.55719106,22.3056203 5.09607419,22.3056203 Z" id="Shape"></path>
                    <path d="M9.59785772,18.4739021 C9.13674085,18.4739021 8.76291972,18.1016853 8.76291972,17.6425475 L8.76291972,15.9116336 C8.76291972,15.4524957 9.13674085,15.0802789 9.59785772,15.0802789 C10.0589746,15.0802789 10.4327957,15.4524957 10.4327957,15.9116336 L10.4327957,17.6425475 C10.4329019,18.1016853 10.0590808,18.4739021 9.59785772,18.4739021 Z" id="Shape"></path>
                    <path d="M0.954093496,18.4739021 C0.492976626,18.4739021 0.119155488,18.1016853 0.119155488,17.6425475 L0.119155488,15.9116336 C0.119155488,15.4524957 0.492976626,15.0802789 0.954093496,15.0802789 C1.41521037,15.0802789 1.7890315,15.4524957 1.7890315,15.9116336 L1.7890315,17.6425475 C1.7890315,18.1016853 1.41521037,18.4739021 0.954093496,18.4739021 Z" id="Shape"></path>
                    <path d="M5.09607419,30.2426147 C4.63495732,30.2426147 4.26113618,29.8703979 4.26113618,29.4112601 L4.26113618,27.6803462 C4.26113618,27.2212083 4.63495732,26.8489915 5.09607419,26.8489915 C5.55719106,26.8489915 5.9310122,27.2212083 5.9310122,27.6803462 L5.9310122,29.4112601 C5.9310122,29.8703979 5.55719106,30.2426147 5.09607419,30.2426147 Z" id="Shape"></path>
                    <path d="M9.59785772,26.4107909 C9.13674085,26.4107909 8.76291972,26.0385741 8.76291972,25.5794362 L8.76291972,23.8485223 C8.76291972,23.3893845 9.13674085,23.0171677 9.59785772,23.0171677 C10.0589746,23.0171677 10.4327957,23.3893845 10.4327957,23.8485223 L10.4327957,25.5794362 C10.4329019,26.0385741 10.0590808,26.4107909 9.59785772,26.4107909 Z" id="Shape"></path>
                    <path d="M0.954093496,26.4107909 C0.492976626,26.4107909 0.119155488,26.0385741 0.119155488,25.5794362 L0.119155488,23.8485223 C0.119155488,23.3893845 0.492976626,23.0171677 0.954093496,23.0171677 C1.41521037,23.0171677 1.7890315,23.3893845 1.7890315,23.8485223 L1.7890315,25.5794362 C1.7890315,26.0385741 1.41521037,26.4107909 0.954093496,26.4107909 Z" id="Shape"></path>
                    <path d="M25.0154309,22.3056203 C24.554314,22.3056203 24.1804929,21.9334035 24.1804929,21.4742656 L24.1804929,19.7434575 C24.1804929,19.2843196 24.554314,18.9121028 25.0154309,18.9121028 C25.4765478,18.9121028 25.8503689,19.2843196 25.8503689,19.7434575 L25.8503689,21.4743713 C25.8503689,21.9335092 25.4765478,22.3056203 25.0154309,22.3056203 Z" id="Shape"></path>
                    <path d="M25.0154309,30.2426147 C24.554314,30.2426147 24.1804929,29.8703979 24.1804929,29.4112601 L24.1804929,27.6803462 C24.1804929,27.2212083 24.554314,26.8489915 25.0154309,26.8489915 C25.4765478,26.8489915 25.8503689,27.2212083 25.8503689,27.6803462 L25.8503689,29.4112601 C25.8503689,29.8703979 25.4765478,30.2426147 25.0154309,30.2426147 Z" id="Shape"></path>
                    <path d="M20.8734502,26.4107909 C20.4123333,26.4107909 20.0385122,26.0385741 20.0385122,25.5794362 L20.0385122,23.8485223 C20.0385122,23.3893845 20.4123333,23.0171677 20.8734502,23.0171677 C21.3345671,23.0171677 21.7083882,23.3893845 21.7083882,23.8485223 L21.7083882,25.5794362 C21.7084944,26.0385741 21.3345671,26.4107909 20.8734502,26.4107909 Z" id="Shape"></path>
                    <path d="M15.2357602,29.7597903 C14.7746433,29.7597903 14.4008222,29.3875735 14.4008222,28.9284357 L14.4008222,27.1975218 C14.4008222,26.7383839 14.7746433,26.3661671 15.2357602,26.3661671 C15.696877,26.3661671 16.0706982,26.7383839 16.0706982,27.1975218 L16.0706982,28.9284357 C16.0706982,29.3874678 15.696877,29.7597903 15.2357602,29.7597903 Z" id="Shape"></path>
                    <path d="M9.47987043,3.48509125 C9.01875356,3.48509125 8.64493242,3.11287445 8.64493242,2.65373657 L8.64493242,0.922822723 C8.64493242,0.463684845 9.01875356,0.0914680481 9.47987043,0.0914680481 C9.9409873,0.0914680481 10.3148084,0.463684845 10.3148084,0.922822723 L10.3148084,2.65373657 C10.3148084,3.11287445 9.9409873,3.48509125 9.47987043,3.48509125 Z" id="Shape"></path>
                    <path d="M0.836106199,3.48509125 C0.374989329,3.48509125 0.00116819106,3.11287445 0.00116819106,2.65373657 L0.00116819106,0.922822723 C0.00116819106,0.463684845 0.374989329,0.0914680481 0.836106199,0.0914680481 C1.29722307,0.0914680481 1.67104421,0.463684845 1.67104421,0.922822723 L1.67104421,2.65373657 C1.67104421,3.11287445 1.29722307,3.48509125 0.836106199,3.48509125 Z" id="Shape"></path>
                    <path d="M34.5927922,6.70518951 C34.1316753,6.70518951 33.7578542,6.33297272 33.7578542,5.87383484 L33.7578542,4.14292099 C33.7578542,3.68378311 34.1316753,3.31156631 34.5927922,3.31156631 C35.053909,3.31156631 35.4277302,3.68378311 35.4277302,4.14292099 L35.4277302,5.87383484 C35.4277302,6.33297272 35.053909,6.70518951 34.5927922,6.70518951 Z" id="Shape"></path>
                    <path d="M34.5927922,14.368943 C34.1316753,14.368943 33.7578542,13.9967262 33.7578542,13.5375883 L33.7578542,11.8066745 C33.7578542,11.3475366 34.1316753,10.9753198 34.5927922,10.9753198 C35.053909,10.9753198 35.4277302,11.3475366 35.4277302,11.8066745 L35.4277302,13.5375883 C35.4277302,13.9967262 35.053909,14.368943 34.5927922,14.368943 Z" id="Shape"></path>
                    <path d="M39.0946819,10.5371191 C38.633565,10.5371191 38.2597439,10.1649023 38.2597439,9.70576447 L38.2597439,7.97485062 C38.2597439,7.51571274 38.633565,7.14349594 39.0946819,7.14349594 C39.5557988,7.14349594 39.9296199,7.51571274 39.9296199,7.97485062 L39.9296199,9.70576447 C39.9296199,10.1649023 39.5557988,10.5371191 39.0946819,10.5371191 Z" id="Shape"></path>
                    <path d="M30.4509177,10.5371191 C29.9898008,10.5371191 29.6159797,10.1649023 29.6159797,9.70576447 L29.6159797,7.97485062 C29.6159797,7.51571274 29.9898008,7.14349594 30.4509177,7.14349594 C30.9120346,7.14349594 31.2858557,7.51571274 31.2858557,7.97485062 L31.2858557,9.70576447 C31.2858557,10.1649023 30.9120346,10.5371191 30.4509177,10.5371191 Z" id="Shape"></path>
                    <path d="M34.5927922,22.3056203 C34.1316753,22.3056203 33.7578542,21.9334035 33.7578542,21.4742656 L33.7578542,19.7434575 C33.7578542,19.2843196 34.1316753,18.9121028 34.5927922,18.9121028 C35.053909,18.9121028 35.4277302,19.2843196 35.4277302,19.7434575 L35.4277302,21.4743713 C35.4277302,21.9335092 35.053909,22.3056203 34.5927922,22.3056203 Z" id="Shape"></path>
                    <path d="M39.0946819,18.4739021 C38.633565,18.4739021 38.2597439,18.1016853 38.2597439,17.6425475 L38.2597439,15.9116336 C38.2597439,15.4524957 38.633565,15.0802789 39.0946819,15.0802789 C39.5557988,15.0802789 39.9296199,15.4524957 39.9296199,15.9116336 L39.9296199,17.6425475 C39.9296199,18.1016853 39.5557988,18.4739021 39.0946819,18.4739021 Z" id="Shape"></path>
                    <path d="M30.4509177,18.4739021 C29.9898008,18.4739021 29.6159797,18.1016853 29.6159797,17.6425475 L29.6159797,15.9116336 C29.6159797,15.4524957 29.9898008,15.0802789 30.4509177,15.0802789 C30.9120346,15.0802789 31.2858557,15.4524957 31.2858557,15.9116336 L31.2858557,17.6425475 C31.2858557,18.1016853 30.9120346,18.4739021 30.4509177,18.4739021 Z" id="Shape"></path>
                    <path d="M34.5927922,30.2426147 C34.1316753,30.2426147 33.7578542,29.8703979 33.7578542,29.4112601 L33.7578542,27.6803462 C33.7578542,27.2212083 34.1316753,26.8489915 34.5927922,26.8489915 C35.053909,26.8489915 35.4277302,27.2212083 35.4277302,27.6803462 L35.4277302,29.4112601 C35.4277302,29.8703979 35.053909,30.2426147 34.5927922,30.2426147 Z" id="Shape"></path>
                    <path d="M39.0946819,26.4107909 C38.633565,26.4107909 38.2597439,26.0385741 38.2597439,25.5794362 L38.2597439,23.8485223 C38.2597439,23.3893845 38.633565,23.0171677 39.0946819,23.0171677 C39.5557988,23.0171677 39.9296199,23.3893845 39.9296199,23.8485223 L39.9296199,25.5794362 C39.9296199,26.0385741 39.5557988,26.4107909 39.0946819,26.4107909 Z" id="Shape"></path>
                    <path d="M30.4509177,26.4107909 C29.9898008,26.4107909 29.6159797,26.0385741 29.6159797,25.5794362 L29.6159797,23.8485223 C29.6159797,23.3893845 29.9898008,23.0171677 30.4509177,23.0171677 C30.9120346,23.0171677 31.2858557,23.3893845 31.2858557,23.8485223 L31.2858557,25.5794362 C31.2858557,26.0385741 30.9120346,26.4107909 30.4509177,26.4107909 Z" id="Shape"></path>
                    <path d="M38.9766946,3.48509125 C38.5155777,3.48509125 38.1417566,3.11287445 38.1417566,2.65373657 L38.1417566,0.922822723 C38.1417566,0.463684845 38.5155777,0.0914680481 38.9766946,0.0914680481 C39.4378115,0.0914680481 39.8116326,0.463684845 39.8116326,0.922822723 L39.8116326,2.65373657 C39.8116326,3.11287445 39.4378115,3.48509125 38.9766946,3.48509125 Z" id="Shape"></path>
                    <path d="M30.3328242,3.48509125 C29.8717073,3.48509125 29.4978862,3.11287445 29.4978862,2.65373657 L29.4978862,0.922822723 C29.4978862,0.463684845 29.8717073,0.0914680481 30.3328242,0.0914680481 C30.7939411,0.0914680481 31.1677622,0.463684845 31.1677622,0.922822723 L31.1677622,2.65373657 C31.1678684,3.11287445 30.7939411,3.48509125 30.3328242,3.48509125 Z" id="Shape"></path>
                </g>
                <path d="M21.8914756,0.867413177 C17.954247,-1.60983765 14.2707282,2.0067984 14.2707282,2.0067984 C7.68510417,1.90359283 7.84132317,7.9382634 7.84132317,7.9382634 C2.03562602,9.28025299 4.16099035,15.5771672 4.16099035,15.5771672 C1.76067632,16.5383748 0.673515244,18.8086858 0.185742378,20.8267987 C-0.275374492,22.7344098 1.20036941,24.5639822 3.17089533,24.5639822 L40.3708775,24.5639822 C42.3415097,24.5639822 43.8171474,22.7344098 43.3560305,20.8267987 C42.8682576,18.8086858 41.7810965,16.5383748 39.3807825,15.5771672 C39.3807825,15.5771672 41.5061468,9.28025299 35.7004497,7.9382634 C35.7004497,7.9382634 35.8567749,1.90359283 29.2710447,2.0067984 C29.2710447,2.0067984 25.5875259,-1.61004913 21.6502973,0.867413177" id="Shape" fill="#F23466"></path>
                <g id="Group" transform="translate(3.716972, 0.634460)" fill="#CD315B">
                    <path d="M23.8170793,1.19574646 C23.8404431,1.21023331 26.144753,2.6893721 25.0393257,5.89868454 C24.8896911,6.33297272 25.1220549,6.80585724 25.5582149,6.95474396 C25.6479533,6.98540955 25.7392846,7.00000214 25.8292353,7.00000214 C26.1760818,7.00000214 26.5002017,6.78301666 26.6190386,6.43808167 C27.3627515,4.27880127 26.9379548,2.56533508 26.2216413,1.38449844 C26.0069065,1.37350113 25.7850564,1.36884842 25.553967,1.3724437 C25.553967,1.3724437 24.7812617,0.614263458 23.5659182,0.0298196411 C23.5612454,0.0366929626 23.5561479,0.0431433105 23.5516875,0.0502281189 C23.307217,0.439469604 23.4261601,0.952325134 23.8170793,1.19574646 Z" id="Shape"></path>
                    <path d="M35.2084289,12.9491263 C35.2053491,12.9591719 34.871034,13.9785384 34.0373704,14.8711185 C32.942032,16.0441301 31.5065376,16.4545203 29.7707119,16.0904457 C29.3191529,15.9958054 28.8766209,16.2835332 28.7816789,16.7327312 C28.6867368,17.1820349 28.9754924,17.6229849 29.4267327,17.7175195 C29.9731275,17.8320396 30.4821402,17.883008 30.9558948,17.883008 C33.0189202,17.883008 34.40928,16.9145041 35.2602541,16.0033131 C35.5453989,15.6980319 35.7847718,15.3832338 35.9835767,15.0832397 C35.8792891,15.0340691 35.7733023,14.9864845 35.6635986,14.942601 C35.6635986,14.942601 36.0521814,13.7902094 36.0427297,12.3665858 C35.6728379,12.3499841 35.323655,12.5807162 35.2084289,12.9491263 Z" id="Shape"></path>
                    <path d="M9.48868496,6.43808167 C9.60752185,6.78301666 9.93153557,7.00000214 10.2784883,7.00000214 C10.3683328,7.00000214 10.4596641,6.98551529 10.5495086,6.95474396 C10.9856687,6.8057515 11.2180325,6.33297272 11.0683979,5.89868454 C9.9798562,2.73811981 12.1885869,1.26194183 12.2951047,1.19310287 C12.6826255,0.948729858 12.7997632,0.43809494 12.5562485,0.0501223755 C12.5517881,0.0430375671 12.5466905,0.0366929626 12.5420178,0.0297138977 C11.3266743,0.614157715 10.553969,1.37233795 10.553969,1.37233795 C10.3229858,1.36863693 10.1011357,1.37339539 9.88629472,1.3843927 C9.1697688,2.56522934 8.74507825,4.27880127 9.48868496,6.43808167 Z" id="Shape"></path>
                    <path d="M5.15172256,17.8832195 C5.62537093,17.8832195 6.13470224,17.8322511 6.68088465,17.717731 C7.132125,17.6230907 7.42088059,17.1822464 7.32593852,16.7329427 C7.23089024,16.2836389 6.78814583,15.9962283 6.33690549,16.0906572 C2.24037805,16.9496109 0.955261687,13.1229684 0.89865752,12.9473286 C0.782794207,12.579976 0.434036077,12.3503014 0.0647815041,12.3669031 C0.0554359756,13.7905266 0.443912602,14.9429182 0.443912602,14.9429182 C0.334208841,14.9868018 0.228115854,15.0343863 0.123934451,15.083557 C0.322845528,15.383551 0.562112297,15.6982434 0.847257114,16.0036304 C1.6983374,16.9147156 3.08837856,17.8832195 5.15172256,17.8832195 Z" id="Shape"></path>
                    <path d="M30.9930645,12.4788853 C31.4569426,12.4841725 31.8299141,12.1107925 31.8321443,11.6516547 C31.8343745,11.1925168 31.4624649,10.8183966 31.0013481,10.816176 C30.2946987,10.8118405 29.6559106,10.8614342 29.0767002,10.9507874 C29.3580218,10.0905647 29.5668095,8.99167923 29.3601458,7.8924765 C29.2752927,7.44116364 28.8391326,7.14444763 28.3857683,7.22830215 C27.932404,7.31279114 27.633878,7.74718506 27.7187312,8.19849792 C27.9679807,9.52430878 27.3227144,10.9617847 27.0401184,11.5081609 C25.9188674,11.9752295 25.1632602,12.6090555 24.6655046,13.1842996 C23.6230534,14.3893515 23.4478247,15.5932402 23.4312576,15.7267941 C23.3746535,16.1825482 23.6999416,16.5974854 24.1574477,16.6538466 C24.1921748,16.6581821 24.2267957,16.6602969 24.2608857,16.6602969 C24.6763369,16.6602969 25.0361397,16.3519492 25.0884959,15.9307732 C25.0928501,15.8960893 25.5781804,12.4789911 30.9322124,12.4789911 C30.9519654,12.4786739 30.9729929,12.4787796 30.9930645,12.4788853 Z" id="Shape"></path>
                    <path d="M11.3500381,13.1841939 C10.8528135,12.6095842 10.0976311,11.9781903 8.97818547,11.5119676 C8.69803201,10.968235 8.04841159,9.51955032 8.29659909,8.19849792 C8.38145224,7.74718506 8.08271392,7.31279114 7.62956199,7.22830215 C7.17609146,7.14370743 6.7400376,7.44126938 6.65518445,7.8924765 C6.44830843,8.99273666 6.65773323,10.0926796 6.93937348,10.9532195 C6.35984451,10.8632318 5.72063161,10.8130037 5.01387602,10.816176 C4.55275915,10.8183966 4.18084959,11.1925168 4.18307978,11.6516547 C4.18530996,12.1093121 4.5587063,12.4788853 5.01791159,12.4788853 C5.04010722,12.4794141 5.06145325,12.4787796 5.08354268,12.4787796 C10.3575005,12.4787796 10.9049573,15.780406 10.9276839,15.9369063 C10.9828013,16.3546985 11.3410112,16.6599797 11.7545508,16.6599797 C11.788747,16.6599797 11.8232617,16.6578648 11.8579888,16.6535294 C12.3157073,16.5971681 12.6408892,16.182231 12.5841789,15.7264769 C12.5678242,15.5931345 12.3924893,14.38914 11.3500381,13.1841939 Z" id="Shape"></path>
                    <path d="M23.8577536,9.01991272 C23.8759136,8.56109207 23.5170666,8.17459991 23.0562683,8.15641205 C22.9613262,8.153134 20.7261519,8.08440079 19.1038532,9.58489975 L19.1038532,3.32954269 C19.1038532,2.87040482 18.730032,2.49818802 18.2689151,2.49818802 C17.8077983,2.49818802 17.4339771,2.87040482 17.4339771,3.32954269 L17.4339771,9.5280098 C15.8173069,8.08577545 13.6376748,8.15260529 13.5436885,8.1563063 C13.084377,8.17438843 12.7278664,8.55855423 12.7439024,9.01610596 C12.7599385,9.47365768 13.1499019,9.83329102 13.6057088,9.81785248 C13.6228069,9.81774673 15.3017099,9.7789389 16.4069248,10.8463129 C17.088405,11.5044598 17.4338709,12.4771935 17.4338709,13.7378664 L17.4338709,19.9336899 C17.4338709,20.3928278 17.8076921,20.7650446 18.2688089,20.7650446 C18.7299258,20.7650446 19.103747,20.3928278 19.103747,19.9336899 L19.103747,14.0522415 C19.1435716,13.9552748 19.1659797,13.8493199 19.1659797,13.7379721 C19.1659797,12.4774049 19.5115518,11.5045656 20.1929258,10.8464186 C21.291344,9.78560074 22.9558039,9.81721802 22.993717,9.81795822 C23.4501611,9.83582886 23.8395935,9.47767593 23.8577536,9.01991272 Z" id="Shape"></path>
                </g>
                <g id="Group" opacity="0.1" transform="translate(16.991870, 0.000000)" fill="#000000">
                    <path d="M1.04266362,0.792691273 C1.66562805,0.420566822 2.28126474,0.197988697 2.87608638,0.0875967009 C1.84775965,-0.103109165 0.882090447,0.0394717009 0.0492764228,0.316929212 C0.376900915,0.436186339 0.708773374,0.593225813 1.04266362,0.792691273 Z" id="Shape"></path>
                    <path d="M26.2947063,20.8267987 C25.8069334,18.8086858 24.7197724,16.5383748 22.3194583,15.5771672 C22.3194583,15.5771672 24.4448227,9.28025299 18.6391255,7.9382634 C18.6391255,7.9382634 18.7954507,1.90359283 12.2097205,2.0067984 C12.2097205,2.0067984 9.19387602,-0.954122772 5.70300254,0.317653198 C7.39794157,0.883274689 8.5427688,2.0067984 8.5427688,2.0067984 C15.1283928,1.90359283 14.9721738,7.9382634 14.9721738,7.9382634 C20.7778709,9.28025299 18.6525066,15.5771672 18.6525066,15.5771672 C21.0528206,16.5383748 22.1399817,18.8086858 22.6277546,20.8267987 C23.0888714,22.7344098 21.6132337,24.5639822 19.6426016,24.5639822 L23.3095534,24.5639822 C25.2801855,24.5639822 26.7558232,22.7345155 26.2947063,20.8267987 Z" id="Shape"></path>
                </g>
            </g>
        </g>
    </g>
</svg>