<?xml version="1.0" encoding="UTF-8"?>
<svg width="54px" height="55px" viewBox="0 0 54 55" version="1.1" xmlns="http://www.w3.org/2000/svg" xmlns:xlink="http://www.w3.org/1999/xlink">
    <!-- Generator: Sketch 51.3 (57544) - http://www.bohemiancoding.com/sketch -->
    <title>icon_IA</title>
    <desc>Created with Sketch.</desc>
    <defs></defs>
    <g id="Page-1" stroke="none" stroke-width="1" fill="none" fill-rule="evenodd">
        <g id="Artboard-6" transform="translate(-572.000000, -262.000000)" fill-rule="nonzero">
            <g id="icon_IA" transform="translate(572.000000, 262.000000)">
                <rect id="Rectangle-path" fill="#000000" opacity="0.1" x="50.4754824" y="6.42438596" width="2.62872425" height="43.6255068"></rect>
                <path d="M5.12518022,46.4887232 L5.12518022,1.595 C5.12518022,0.966842105 5.63836822,0.457690058 6.27150542,0.457690058 L40.0580576,0.457690058 C40.6911948,0.457690058 41.2043828,0.966842105 41.2043828,1.595 L41.2043828,46.4887232 L41.2043828,49.3932164 C41.2043828,52.167232 38.9377754,54.4160136 36.1417707,54.4160136 L5.12518022,54.4160136 L5.12518022,46.4887232 Z" id="Shape" fill="#65CDEF"></path>
                <path d="M40.0580576,0.457797271 L36.4065234,0.457797271 C37.0396606,0.457797271 37.5528486,0.966949318 37.5528486,1.59510721 L37.5528486,46.4888304 L37.5528486,49.3933236 C37.5528486,52.1673392 35.2862412,54.4161209 32.4902364,54.4161209 L36.1417707,54.4161209 C38.9377754,54.4161209 41.2043828,52.1673392 41.2043828,49.3933236 L41.2043828,46.4888304 L41.2043828,1.595 C41.2043828,0.96705653 40.6911948,0.457797271 40.0580576,0.457797271 Z" id="Shape" fill="#000000" opacity="0.1"></path>
                <path d="M51.003583,54.8927875 L49.9467334,54.8927875 C48.7866843,54.8927875 47.8464339,53.9598246 47.8464339,52.8090058 L47.8464339,6.42417154 L50.4254495,0 L53.1038825,6.42417154 L53.1038825,52.8090058 C53.1038825,53.9599318 52.163416,54.8927875 51.003583,54.8927875 Z" id="Shape" fill="#FFC433"></path>
                <path d="M47.8463259,50.0493567 L47.8463259,52.8088986 C47.8463259,53.9598246 48.7866843,54.8926803 49.9466253,54.8926803 L51.0034749,54.8926803 C52.1635241,54.8926803 53.1037744,53.9597173 53.1037744,52.8088986 L53.1037744,50.0493567 L47.8463259,50.0493567 Z" id="Shape" fill="#F23466"></path>
                <polygon id="Shape" fill="#F9C5B5" points="47.8462178 6.42417154 50.4254495 0 53.1038825 6.42417154"></polygon>
                <g id="Group" transform="translate(9.833672, 35.594542)" fill="#FFFFFF">
                    <path d="M5.3989021,6.42653021 L1.24585061,6.42653021 C0.612713415,6.42653021 0.0995254065,5.91737817 0.0995254065,5.28922027 L0.0995254065,1.16883041 C0.0995254065,0.540672515 0.612713415,0.0315204678 1.24585061,0.0315204678 L5.3989021,0.0315204678 C6.0320393,0.0315204678 6.5452273,0.540672515 6.5452273,1.16883041 L6.5452273,5.28922027 C6.54511924,5.91737817 6.03193123,6.42653021 5.3989021,6.42653021 Z" id="Shape"></path>
                    <path d="M15.8151382,6.42653021 L11.6620867,6.42653021 C11.0289495,6.42653021 10.5157615,5.91737817 10.5157615,5.28922027 L10.5157615,1.16883041 C10.5157615,0.540672515 11.0289495,0.0315204678 11.6620867,0.0315204678 L15.8151382,0.0315204678 C16.4482754,0.0315204678 16.9614634,0.540672515 16.9614634,1.16883041 L16.9614634,5.28922027 C16.9613554,5.91737817 16.4481673,6.42653021 15.8151382,6.42653021 Z" id="Shape"></path>
                    <path d="M26.2313743,6.42653021 L22.0782148,6.42653021 C21.4450776,6.42653021 20.9318896,5.91737817 20.9318896,5.28922027 L20.9318896,1.16883041 C20.9318896,0.540672515 21.4450776,0.0315204678 22.0782148,0.0315204678 L26.2312663,0.0315204678 C26.8644035,0.0315204678 27.3775915,0.540672515 27.3775915,1.16883041 L27.3775915,5.28922027 C27.3775915,5.91737817 26.8644035,6.42653021 26.2313743,6.42653021 Z" id="Shape"></path>
                </g>
                <path d="M30.360436,24.4440156 L24.1708418,24.4440156 L24.1708418,19.5629532 C24.1708418,19.0917544 23.7859238,18.7099708 23.3110979,18.7099708 C22.836272,18.7099708 22.451354,19.0917544 22.451354,19.5629532 L22.451354,24.4440156 L16.2618679,24.4440156 C13.7872405,24.4440156 11.7740393,26.441384 11.7740393,28.8965497 L11.7740393,31.7473294 C11.7740393,32.2185283 12.1589573,32.6003119 12.6337832,32.6003119 C13.1086091,32.6003119 13.4935271,32.2185283 13.4935271,31.7473294 L13.4935271,28.8965497 C13.4935271,27.3820663 14.7353794,26.1499805 16.2618679,26.1499805 L22.451354,26.1499805 L22.451354,31.7474366 C22.451354,32.2186355 22.836272,32.6004191 23.3110979,32.6004191 C23.7859238,32.6004191 24.1708418,32.2186355 24.1708418,31.7474366 L24.1708418,26.1499805 L30.360436,26.1499805 C31.8869245,26.1499805 33.1287768,27.3820663 33.1287768,28.8965497 L33.1287768,31.7473294 C33.1287768,32.2185283 33.5136948,32.6003119 33.9885207,32.6003119 C34.4633465,32.6003119 34.8482646,32.2185283 34.8482646,31.7473294 L34.8482646,28.8965497 C34.8482646,26.441384 32.8350633,24.4440156 30.360436,24.4440156 Z" id="Shape" fill="#3A9CB4"></path>
                <path d="M30.091685,19.5629532 L16.530835,19.5629532 C15.8976978,19.5629532 15.3845098,19.0538012 15.3845098,18.4256433 L15.3845098,12.9771053 C15.3845098,12.3489474 15.8976978,11.8397953 16.530835,11.8397953 L30.091685,11.8397953 C30.7248222,11.8397953 31.2380102,12.3489474 31.2380102,12.9771053 L31.2380102,18.4256433 C31.2379021,19.0538012 30.7247141,19.5629532 30.091685,19.5629532 Z" id="Shape" fill="#FFFFFF"></path>
                <rect id="Rectangle-path" fill="#DDA322" x="47.8458936" y="18.2974172" width="5.25766463" height="17.7606043"></rect>
                <path d="M36.1417707,54.4160136 C33.3457659,54.4160136 31.0791585,52.167232 31.0791585,49.3932164 L0.0625680894,49.3932164 C0.0625680894,52.167232 2.32917547,54.4160136 5.12518022,54.4160136 L29.3032622,54.4160136 L36.1417707,54.4160136 Z" id="Shape" fill="#3A9CB4"></path>
                <g id="Group" opacity="0.1" transform="translate(49.276423, 0.000000)" fill="#000000">
                    <polygon id="Shape" points="1.14902676 0 0.0743468835 2.67688109 2.26520257 2.67688109"></polygon>
                </g>
                <path d="M50.4254495,0 L49.5009763,2.30270955 L51.2192754,6.42417154 L51.2192754,52.8090058 C51.2192754,53.819269 50.4945014,54.6611014 49.5327466,54.8519396 C49.6666358,54.8785283 49.8048476,54.8928947 49.9466253,54.8928947 L51.0034749,54.8928947 C52.1635241,54.8928947 53.1037744,53.9599318 53.1037744,52.8091131 L53.1037744,6.42417154 L50.4254495,0 Z" id="Shape" fill="#000000" opacity="0.1"></path>
            </g>
        </g>
    </g>
</svg>