<?xml version="1.0" encoding="UTF-8"?>
<svg width="58px" height="55px" viewBox="0 0 58 55" version="1.1" xmlns="http://www.w3.org/2000/svg" xmlns:xlink="http://www.w3.org/1999/xlink">
    <!-- Generator: Sketch 51.3 (57544) - http://www.bohemiancoding.com/sketch -->
    <title>icon_research</title>
    <desc>Created with Sketch.</desc>
    <defs></defs>
    <g id="Page-1" stroke="none" stroke-width="1" fill="none" fill-rule="evenodd">
        <g id="Artboard-6" transform="translate(-371.000000, -174.000000)" fill-rule="nonzero">
            <g id="icon_research" transform="translate(371.000000, 174.000000)">
                <path d="M51.7503452,42.9915927 L52.5286408,31.8805948 C57.560703,26.8209274 56.7446597,19.778377 56.7446597,19.778377 C56.7446597,12.376996 50.7775037,6.37700605 43.4166971,6.37700605 C36.0558906,6.37700605 30.0887346,12.3768851 30.0887346,19.7782661 L30.0887346,21.5560081 L27.7676962,29.2331653 C27.6366959,29.6665121 27.9634706,30.1027419 28.4192353,30.1027419 L31.4488812,30.1027419 L31.6592857,37.1384173 C31.6924545,38.2473992 32.6714384,39.0923589 33.7820927,38.9707157 L38.588897,38.4443347 L39.582511,44.3047177" id="Shape" fill="#F9C5B5"></path>
                <g id="Group" opacity="0.1" transform="translate(49.474090, 31.824597)" fill="#000000">
                    <polygon id="Shape" points="0.842064652 0.0558870968 0.0638807667 11.3174698 2.27268112 11.0793952 3.05455044 0.0558870968"></polygon>
                </g>
                <path d="M22.2728334,12.282631 C24.6346349,12.282631 26.5491594,10.3816935 26.5491594,8.03665323 C26.5491594,5.6916129 24.6346349,3.7906754 22.2728334,3.7906754 C22.1112329,3.7906754 21.9520894,3.80032258 21.7951795,3.81773185 C20.8653346,1.62017137 18.6775301,0.076733871 16.1263199,0.076733871 C12.7317048,0.076733871 9.97980629,2.80910282 9.97980629,6.17962702 C9.97980629,6.18117944 9.97991797,6.18273185 9.97991797,6.18428427 C8.36045119,6.27077621 7.07401316,7.60175403 7.07401316,9.23123992 C7.07401316,10.916502 8.4499066,12.2827419 10.1473258,12.2827419 L22.2728334,12.2827419 L22.2728334,12.282631 Z" id="Shape" fill="#65CDEF"></path>
                <path d="M22.2709349,3.79078629 C22.1093344,3.79078629 21.9501909,3.80043347 21.7932809,3.81784274 C20.8634361,1.62028226 18.6756315,0.0768447581 16.1244213,0.0768447581 C15.5843385,0.0768447581 15.0608959,0.146481855 14.5619111,0.276441532 C16.4204841,0.760020161 17.9358654,2.08534274 18.668819,3.81784274 C18.825729,3.80054435 18.9848725,3.79078629 19.146473,3.79078629 C21.5082744,3.79078629 23.4227989,5.69172379 23.4227989,8.03676411 C23.4227989,10.3816935 21.5082744,12.2827419 19.146473,12.2827419 L22.2709349,12.2827419 C24.6327364,12.2827419 26.5472608,10.3818044 26.5472608,8.03676411 C26.5471491,5.69172379 24.6326247,3.79078629 22.2709349,3.79078629 Z" id="Shape" fill="#000000" opacity="0.1"></path>
                <polygon id="Shape" fill="#000000" opacity="0.1" points="4.06301779 26.9371371 4.20674951 28.1607762 16.3338207 27.451875 16.0469156 26.2198085"></polygon>
                <path d="M48.4135802,27.3619456 L47.6945866,30.3694254 L49.8435266,30.0658165 L50.8399326,33.4944456 C50.8399326,33.4944456 57.1798753,29.0225907 57.1798753,20.7403226 C57.1798753,13.8972581 52.527859,9.36253024 51.7676555,8.70020161 C51.6940586,8.63610887 51.6526255,8.54418347 51.6526255,8.44704637 L51.6526255,2.96645161 C51.6526255,2.69256048 51.4083821,2.48220766 51.135437,2.52068548 L44.2889153,3.48606855 C44.18617,3.50059476 44.0816378,3.4796371 43.9925175,3.42685484 L40.2082521,1.18238911 C40.0138178,1.06717742 39.7635437,1.11197581 39.6218222,1.28728831 L35.7661936,6.06397177 C35.6129691,6.25381048 35.3353334,6.28840726 35.1394473,6.14203629 L32.4831465,4.15538306 C32.1617325,3.91509073 31.7077546,4.17833669 31.7608025,4.57431452 L33.2738385,15.8700504 C33.3185104,16.203377 33.7019067,16.3721472 33.9806591,16.1814214 L35.8581059,14.8964617 C36.0221633,14.784244 36.2407204,14.7913407 36.3969603,14.9140927 L38.7692597,16.7786593 C38.9250528,16.9009677 39.1428281,16.9085081 39.3067739,16.7971774 L41.6836521,15.1825504 C41.9826186,14.9795161 42.3889092,15.1892036 42.393153,15.5488105 L42.4913194,23.865121 C42.4942231,24.1117339 42.6963633,24.3101109 42.9447389,24.3101109 L43.8506843,24.3101109 C44.0606421,24.3101109 44.2431266,24.1670665 44.291819,23.964254 L48.4135802,27.3619456 Z" id="Shape" fill="#7C4238"></path>
                <g id="Group" opacity="0.1" transform="translate(48.468973, 2.439516)" fill="#000000">
                    <path d="M3.29879386,6.26068548 C3.22519696,6.19659274 3.18376381,6.10466734 3.18376381,6.00753024 L3.18376381,0.526935484 C3.18376381,0.253044355 2.93952039,0.0426915323 2.66657529,0.0811693548 L0.090572206,0.444435484 C0.0955977908,0.471381048 0.0997299383,0.498548387 0.0997299383,0.526935484 L0.0997299383,6.00775202 C0.0997299383,6.10488911 0.141274773,6.19670363 0.21475999,6.26090726 C0.97496345,6.92323589 5.62697978,11.4579637 5.62697978,18.3010282 C5.62697978,23.1082056 3.49110624,26.6314214 1.6989827,28.7418246 L2.37129427,31.0550403 C2.37129427,31.0550403 8.711237,26.5831855 8.711237,18.3009173 C8.71101365,11.4577419 4.05899732,6.92301411 3.29879386,6.26068548 Z" id="Shape"></path>
                </g>
                <path d="M44.6721999,23.2511391 C46.0616066,21.8715927 48.0716171,21.630746 49.1616106,22.713004 C50.2516041,23.7952621 50.0090359,25.7910081 48.6196292,27.1705544 C47.2302225,28.5501008 45.220212,28.7909476 44.1302185,27.7086895 C44.1302185,27.7088004 42.1437723,25.8023185 44.6721999,23.2511391 Z" id="Shape" fill="#FFAEAE"></path>
                <polygon id="Shape" fill="#FFC433" points="14.4742426 26.3338004 3.35619721 27.0882762 3.35619721 19.299123 18.1047251 20.3167339 18.1047251 26.0707762"></polygon>
                <path d="M19.8742893,27.0882762 L18.7848542,27.0882762 C18.4091638,27.0882762 18.1046134,26.7858871 18.1046134,26.4128629 L18.1046134,19.9744254 C18.1046134,19.6014012 18.4091638,19.2990121 18.7848542,19.2990121 L19.8742893,19.2990121 C20.2499797,19.2990121 20.5545301,19.6014012 20.5545301,19.9744254 L20.5545301,26.4128629 C20.5544185,26.785998 20.2499797,27.0882762 19.8742893,27.0882762 Z" id="Shape" fill="#DDA322"></path>
                <path d="M25.3410088,25.2716129 L20.5544185,25.2716129 L20.5544185,21.1156754 L25.3410088,21.1156754 C25.6540469,21.1156754 25.9078947,21.3677218 25.9078947,21.6785383 L25.9078947,24.7088609 C25.9078947,25.0197883 25.6541585,25.2716129 25.3410088,25.2716129 Z" id="Shape" fill="#FFC433"></path>
                <path d="M30.26396,45.2801915 L16.2378878,50.4701512 L13.824267,34.7322782 L16.1775808,34.4403125 C16.7988548,34.363246 17.2396544,33.8006048 17.1619254,33.1837399 L17.2598684,29.2043347 L18.0380523,26.036623 C18.3548875,25.3459073 18.0450881,24.5235685 17.3494355,24.2089819 C16.6537829,23.8943952 15.8255665,24.201996 15.5087313,24.8927117 L14.8603192,26.3061895 L4.06312947,26.9374698 L4.97030336,34.6677419 C5.04792073,35.2846069 5.61458333,35.7222782 6.23585729,35.6451008 L7.76977745,35.4547077 L9.47936972,54.923377 L32.163296,54.923377 L30.26396,45.2801915 Z" id="Shape" fill="#F9C5B5"></path>
                <polygon id="Shape" fill="#65CDEF" points="53.3693653 42.7290121 53.3693653 54.3922278 30.26396 54.9231552 30.26396 52.1375605 30.26396 48.7089315 30.26396 45.2801915 38.7509442 44.3048286"></polygon>
                <polygon id="Shape" fill="#000000" opacity="0.1" points="53.3693653 54.3922278 53.3693653 42.7290121 50.1241776 43.0788609 50.1241776 54.3922278"></polygon>
                <path d="M2.92935754,29.1560988 L1.13366025,29.1560988 C0.507584064,29.1560988 0,28.6521169 0,28.0304839 L0,18.3570262 C0,17.7353931 0.507584064,17.2314113 1.13366025,17.2314113 L2.92935754,17.2314113 C3.55543372,17.2314113 4.06301779,17.7353931 4.06301779,18.3570262 L4.06301779,28.0304839 C4.06301779,28.6521169 3.5555454,29.1560988 2.92935754,29.1560988 Z" id="Shape" fill="#DDA322"></path>
                <path d="M25.3410088,23.9287702 L20.5544185,23.9287702 L20.5544185,25.0700202 C20.5544185,25.4430444 20.249868,25.7454335 19.8741776,25.7454335 L18.7847425,25.7454335 C18.4090521,25.7454335 18.1045017,25.4430444 18.1045017,25.0700202 L18.1045017,24.7277117 L14.4741309,24.9907359 L4.06301779,25.6973085 L4.06301779,26.6874194 C4.06301779,27.3090524 3.55543372,27.8130343 2.92935754,27.8130343 L1.13366025,27.8130343 C0.507584064,27.8130343 0,27.3091633 0,26.6874194 L0,27.9477621 C0,28.5693952 0.507584064,29.073377 1.13366025,29.073377 L2.92935754,29.073377 C3.55543372,29.073377 4.06301779,28.5693952 4.06301779,27.9477621 L4.06301779,26.9576512 L14.4741309,26.2510786 L15.5594339,26.1723488 L16.2282834,24.8634375 L17.4933906,24.9854133 L18.1045017,25.9878327 L18.1045017,26.3301411 C18.1045017,26.7031653 18.4090521,27.0055544 18.7847425,27.0055544 L19.8741776,27.0055544 C20.249868,27.0055544 20.5544185,26.7031653 20.5544185,26.3301411 L20.5544185,25.1888911 L25.3410088,25.1888911 C25.6540469,25.1888911 25.9078947,24.9368448 25.9078947,24.6260282 L25.9078947,23.3656855 C25.9078947,23.6768347 25.6541585,23.9287702 25.3410088,23.9287702 Z" id="Shape" fill="#000000" opacity="0.1"></path>
                <path d="M17.4091841,24.2087601 C16.7135315,23.8941734 15.8853151,24.2017742 15.5684799,24.8924899 L13.6136391,29.0737097 C13.6136391,29.0737097 11.0978314,29.972006 10.4948729,32.281119 C10.4505361,32.4511089 10.2372279,32.5048891 10.117284,32.3759274 C8.43952039,30.5707964 5.99328907,30.7560887 4.54927104,31.0801008 L4.97019168,34.6672984 C5.04244842,35.2406956 5.53718933,35.658629 6.10552713,35.652752 C6.14863548,35.6523085 6.19196719,35.6500907 6.23563393,35.6446573 L6.56296702,35.6040726 L7.77145265,35.4753327 L10.7228111,35.1609677 C10.7253797,35.1681754 10.727725,35.1752722 10.7304053,35.1824798 L11.5189754,35.07625 L16.2371061,34.4403125 C16.85838,34.363246 17.2991797,33.8006048 17.2214506,33.1837399 L17.3193937,29.2043347 L18.0975776,26.036623 C18.4146361,25.3457964 18.1047251,24.5233468 17.4091841,24.2087601 Z" id="Shape" fill="#F2B8AD"></path>
                <g id="Group" opacity="0.2" transform="translate(32.610461, 20.403226)" fill="#000000">
                    <path d="M0.944251543,0.0934778226 C0.474638564,0.0934778226 0.0940342755,0.471381048 0.0940342755,0.93766129 L0.0940342755,3.80165323 C0.0940342755,4.26804435 0.474750244,4.64583669 0.944251543,4.64583669 C1.41386452,4.64583669 1.79446881,4.26793347 1.79446881,3.80165323 L1.79446881,0.93766129 C1.79446881,0.471270161 1.41386452,0.0934778226 0.944251543,0.0934778226 Z" id="Shape"></path>
                </g>
            </g>
        </g>
    </g>
</svg>