<?xml version="1.0" encoding="UTF-8"?>
<svg width="167px" height="19px" viewBox="0 0 167 19" version="1.1" xmlns="http://www.w3.org/2000/svg" xmlns:xlink="http://www.w3.org/1999/xlink">
    <!-- Generator: Sketch 51.3 (57544) - http://www.bohemiancoding.com/sketch -->
    <title>logo</title>
    <desc>Created with Sketch.</desc>
    <defs>
        <path d="M4.38085935,4.9375 L10.6738281,19.9960938 L16.9902344,4.9375 L18.9121094,4.9375 L18.9121094,22 L17.4707031,22 L17.4707031,14.5703125 L17.5878906,6.953125 L11.2363281,22 L10.1230469,22 L3.79492185,7.01171875 L3.91210935,14.5234375 L3.91210935,22 L2.4707031,22 L2.4707031,4.9375 L4.38085935,4.9375 Z M32.6582031,17.21875 L24.9121094,17.21875 L23.1542969,22 L21.6425781,22 L28.0996094,4.9375 L29.4707031,4.9375 L35.9277344,22 L34.4277344,22 L32.6582031,17.21875 Z M25.3574219,15.9882812 L32.2011719,15.9882812 L28.7792969,6.6953125 L25.3574219,15.9882812 Z M44.8105469,14.8984375 L39.8535156,14.8984375 L39.8535156,22 L38.4003906,22 L38.4003906,4.9375 L43.9433594,4.9375 C45.763681,4.9375 47.1855417,5.37890184 48.2089844,6.26171875 C49.232427,7.14453566 49.7441406,8.37889832 49.7441406,9.96484375 C49.7441406,11.0585992 49.4238313,12.0234333 48.7832031,12.859375 C48.1425749,13.6953167 47.2832085,14.2734359 46.2050781,14.59375 L50.4707031,21.8476562 L50.4707031,22 L48.9355469,22 L44.8105469,14.8984375 Z M39.8535156,13.6679688 L44.2714844,13.6679688 C45.4824279,13.6679688 46.4550744,13.3242222 47.1894531,12.6367188 C47.9238318,11.9492153 48.2910156,11.0585992 48.2910156,9.96484375 C48.2910156,8.76171273 47.9082069,7.82812832 47.1425781,7.1640625 C46.3769493,6.49999668 45.3027413,6.16796875 43.9199219,6.16796875 L39.8535156,6.16796875 L39.8535156,13.6679688 Z M55.4277344,22 L53.9863281,22 L53.9863281,4.9375 L55.4277344,4.9375 L55.4277344,22 Z M72.7597656,22 L71.3183594,22 L61.5097656,7.3984375 L61.5097656,22 L60.0566406,22 L60.0566406,4.9375 L61.5097656,4.9375 L71.3300781,19.5507812 L71.3300781,4.9375 L72.7597656,4.9375 L72.7597656,22 Z" id="path-1"></path>
        <path d="M81.0566405,4.9375 L85.439453,17.3125 L89.798828,4.9375 L94.4160155,4.9375 L94.4160155,22 L90.8886718,22 L90.8886718,17.3359375 L91.2402343,9.28515625 L86.6347655,22 L84.220703,22 L79.626953,9.296875 L79.9785155,17.3359375 L79.9785155,22 L76.4628905,22 L76.4628905,4.9375 L81.0566405,4.9375 Z M101.224609,22 L97.7089843,22 L97.7089843,4.9375 L101.224609,4.9375 L101.224609,22 Z M109.826172,15.15625 L107.998047,17.125 L107.998047,22 L104.482422,22 L104.482422,4.9375 L107.998047,4.9375 L107.998047,12.671875 L109.544922,10.5507812 L113.892578,4.9375 L118.216797,4.9375 L112.158203,12.5195312 L118.392578,22 L114.208984,22 L109.826172,15.15625 Z M132.630859,4.9375 L132.630859,16.1757812 C132.630859,18.0429781 132.046881,19.5195258 130.878906,20.6054688 C129.710932,21.6914117 128.115244,22.234375 126.091797,22.234375 C124.099599,22.234375 122.517584,21.7070365 121.345703,20.6523438 C120.173822,19.597651 119.576172,18.1484467 119.552734,16.3046875 L119.552734,4.9375 L123.068359,4.9375 L123.068359,16.1992188 C123.068359,17.3164118 123.335935,18.1308568 123.871094,18.6425781 C124.406253,19.1542994 125.14648,19.4101562 126.091797,19.4101562 C128.068369,19.4101562 129.072265,18.3711041 129.103516,16.2929688 L129.103516,4.9375 L132.630859,4.9375 Z M139.029297,19.1757812 L146.494141,19.1757812 L146.494141,22 L135.513672,22 L135.513672,4.9375 L139.029297,4.9375 L139.029297,19.1757812 Z M152.248047,22 L148.732422,22 L148.732422,4.9375 L152.248047,4.9375 L152.248047,22 Z M168.900391,16.3164062 C168.767577,18.1523529 168.08985,19.597651 166.867187,20.6523438 C165.644525,21.7070365 164.033213,22.234375 162.033203,22.234375 C159.845692,22.234375 158.125006,21.4980542 156.871094,20.0253906 C155.617181,18.552727 154.990234,16.5312629 154.990234,13.9609375 L154.990234,12.9179688 C154.990234,11.2773355 155.279294,9.8320375 155.857422,8.58203125 C156.43555,7.332025 157.261713,6.37305021 158.335937,5.70507812 C159.410161,5.03710604 160.658196,4.703125 162.080078,4.703125 C164.048838,4.703125 165.634759,5.23046348 166.837891,6.28515625 C168.041022,7.33984902 168.736327,8.82030297 168.923828,10.7265625 L165.408203,10.7265625 C165.322265,9.62499449 165.015628,8.82617436 164.488281,8.33007812 C163.960935,7.83398189 163.158208,7.5859375 162.080078,7.5859375 C160.908197,7.5859375 160.031253,8.00585518 159.449219,8.84570312 C158.867184,9.68555107 158.568359,10.9882724 158.552734,12.7539062 L158.552734,14.0429688 C158.552734,15.886728 158.832028,17.2343707 159.390625,18.0859375 C159.949221,18.9375043 160.830072,19.3632812 162.033203,19.3632812 C163.119146,19.3632812 163.929685,19.1152369 164.464844,18.6191406 C165.000003,18.1230444 165.30664,17.3554739 165.384766,16.3164062 L168.900391,16.3164062 Z" id="path-2"></path>
    </defs>
    <g id="Page-1" stroke="none" stroke-width="1" fill="none" fill-rule="evenodd">
        <g id="Artboard-7" transform="translate(-2.000000, -4.000000)" fill="#000000">
            <g id="logo">
                <g id="MARIN">
                    <use xlink:href="#path-1"></use>
                    <use xlink:href="#path-1"></use>
                </g>
                <g id="MIKULIC">
                    <use xlink:href="#path-2"></use>
                    <use xlink:href="#path-2"></use>
                </g>
            </g>
        </g>
    </g>
</svg>