<?xml version="1.0" encoding="UTF-8"?>
<svg width="185px" height="30px" viewBox="0 0 185 30" version="1.1" xmlns="http://www.w3.org/2000/svg" xmlns:xlink="http://www.w3.org/1999/xlink">
    <!-- Generator: Sketch 51.3 (57544) - http://www.bohemiancoding.com/sketch -->
    <title>sm</title>
    <desc>Created with Sketch.</desc>
    <defs></defs>
    <g id="sm" stroke="none" stroke-width="1" fill="none" fill-rule="evenodd">
        <g id="empty-slots" fill="#F2F2F2">
            <rect id="sm_slot" x="93" y="0" width="30" height="30" rx="1"></rect>
            <rect id="sm_slot" x="62" y="0" width="30" height="30" rx="1"></rect>
            <rect id="sm_slot" x="0" y="0" width="30" height="30" rx="1"></rect>
        </g>
        <g id="linkedin" transform="translate(31.000000, 0.000000)">
            <rect id="Rectangle-Copy-4" stroke="#D9D9D9" stroke-width="2" x="1" y="1" width="28" height="28" rx="1"></rect>
            <path d="M21.9733666,16.3556214 L21.9733666,20.9871845 L19.1927541,20.9871845 L19.1927541,16.6658155 C19.1927541,15.5802524 18.7905684,14.8393981 17.7840789,14.8393981 C17.0157517,14.8393981 16.5585197,15.3386796 16.3573666,15.8216505 C16.2840116,15.9943107 16.2651299,16.2346311 16.2651299,16.4763204 L16.2651299,20.9871845 L13.4835824,20.9871845 C13.4835824,20.9871845 13.5210441,13.6682039 13.4835824,12.9099029 L16.2648585,12.9099029 L16.2648585,14.0548252 C16.2592181,14.0633883 16.2518886,14.0726214 16.24658,14.0809223 L16.2648585,14.0809223 L16.2648585,14.0548252 C16.6343782,13.5052427 17.2943016,12.7201456 18.7714153,12.7201456 C20.6014594,12.7201165 21.9733666,13.8745922 21.9733666,16.3556214 Z M10.5739652,9.01625243 C9.62240139,9.01625243 9,9.61896117 9,10.4115437 C9,11.1868544 9.60439443,11.8078544 10.5370464,11.8078544 L10.5556265,11.8078544 C11.5256195,11.8078544 12.1288677,11.1869709 12.1288677,10.4115437 C12.1105893,9.61896117 11.5256195,9.01625243 10.5739652,9.01625243 Z M9.16519954,20.9871845 L11.9456914,20.9871845 L11.9456914,12.9099029 L9.16519954,12.9099029 L9.16519954,20.9871845 Z" id="LinkedIn" fill="#D9D9D9" fill-rule="nonzero"></path>
        </g>
        <g id="email" transform="translate(155.000000, 0.000000)" stroke="#D9D9D9">
            <rect id="Rectangle" stroke-width="2" x="1" y="1" width="28" height="28" rx="1"></rect>
            <path d="M23.2528302,9 L6.74134771,9 C6.33190836,9 6,9.34348117 6,9.76719665 L6,20.2107113 C6,20.6344268 6.33190836,20.9779079 6.74134771,20.9779079 L23.2528302,20.9779079 C23.6622695,20.9779079 23.9941779,20.6344268 23.9941779,20.2107113 L23.9941779,9.76719665 C23.9941779,9.34348117 23.6622695,9 23.2528302,9 Z M6.74134771,9.60251046 L23.2528302,9.60251046 C23.3225013,9.60286192 23.3838275,9.65005858 23.4042049,9.71899582 L14.9970889,15.1536402 L6.58997305,9.71899582 C6.6103504,9.65005858 6.67167655,9.60286192 6.74134771,9.60251046 Z M6.58221024,10.4058577 L12.629434,14.3141423 L6.58221024,19.2788285 L6.58221024,10.4058577 Z M23.4119677,20.2066946 C23.4119677,20.2976736 23.3406954,20.3713808 23.2528302,20.3713808 L6.74134771,20.3713808 C6.65348248,20.3713808 6.58221024,20.2976234 6.58221024,20.2066946 L6.58221024,20.0460251 L13.1534232,14.6716318 L14.8418329,15.7641841 C14.9366846,15.8260921 15.0574933,15.8260921 15.152345,15.7641841 L16.8407547,14.6716318 L23.4119677,20.0460251 L23.4119677,20.2066946 Z M23.4119677,19.2788285 L17.3492183,14.3302092 L23.4119677,10.4420084 L23.4119677,19.2788285 Z" id="Shape" stroke-width="0.8" fill="#D9D9D9" fill-rule="nonzero"></path>
        </g>
        <g id="medium" transform="translate(124.000000, 0.000000)">
            <rect id="Rectangle-Copy-3" stroke="#D9D9D9" stroke-width="2" x="1" y="1" width="28" height="28" rx="1"></rect>
            <path d="M10.54155,12.0399765 C10.5577015,11.8853517 10.4968458,11.7325222 10.3776844,11.6284538 L9.16386555,10.2116402 L9.16386555,10 L12.9327731,10 L15.8459384,16.1904762 L18.4070962,10 L22,10 L22,10.2116402 L20.9621849,11.175779 C20.8727138,11.2418604 20.8283316,11.3504698 20.8468721,11.4579659 L20.8468721,18.5420341 C20.8283316,18.6495302 20.8727138,18.7581396 20.9621849,18.8242211 L21.9757236,19.7883598 L21.9757236,20 L16.8776844,20 L16.8776844,19.7883598 L17.9276378,18.8007055 C18.0308123,18.7007642 18.0308123,18.6713698 18.0308123,18.5185186 L18.0308123,12.792475 L15.111578,19.9764844 L14.7170868,19.9764844 L11.318394,12.792475 L11.318394,17.6072898 C11.290057,17.8097182 11.3594424,18.0135192 11.5065359,18.159906 L12.8720822,19.7648442 L12.8720822,19.9764844 L9,19.9764844 L9,19.7648442 L10.3655462,18.159906 C10.5115688,18.0132765 10.5769083,17.8081236 10.54155,17.6072898 L10.54155,12.0399765 Z" id="Shape" fill="#D9D9D9" fill-rule="nonzero"></path>
        </g>
    </g>
</svg>