<?xml version="1.0" encoding="UTF-8"?>
<svg width="185px" height="30px" viewBox="0 0 185 30" version="1.1" xmlns="http://www.w3.org/2000/svg" xmlns:xlink="http://www.w3.org/1999/xlink">
    <!-- Generator: Sketch 51.3 (57544) - http://www.bohemiancoding.com/sketch -->
    <title>sm_hover</title>
    <desc>Created with Sketch.</desc>
    <defs></defs>
    <g id="sm_hover" stroke="none" stroke-width="1" fill="none" fill-rule="evenodd">
        <g id="empty-slots" fill="#F2F2F2">
            <rect id="sm_slot" x="93" y="0" width="30" height="30" rx="1"></rect>
            <rect id="sm_slot" x="62" y="0" width="30" height="30" rx="1"></rect>
            <rect id="sm_slot" x="0" y="0" width="30" height="30" rx="1"></rect>
        </g>
        <g id="linkedin" transform="translate(31.000000, 0.000000)">
            <rect id="Rectangle-Copy-4" fill="#0077B5" x="0" y="0" width="30" height="30" rx="1"></rect>
            <g id="linkedin-logo" transform="translate(9.000000, 9.000000)" fill="#FFFFFF" fill-rule="nonzero">
                <path d="M12.9733666,7.35562136 L12.9733666,11.9871845 L10.1927541,11.9871845 L10.1927541,7.66581553 C10.1927541,6.58025243 9.79056845,5.83939806 8.78407889,5.83939806 C8.01575174,5.83939806 7.55851972,6.33867961 7.35736659,6.82165049 C7.2840116,6.99431068 7.26512993,7.23463107 7.26512993,7.47632039 L7.26512993,11.9871845 L4.48358237,11.9871845 C4.48358237,11.9871845 4.52104408,4.66820388 4.48358237,3.90990291 L7.26485847,3.90990291 L7.26485847,5.05482524 C7.2592181,5.06338835 7.25188863,5.07262136 7.24658005,5.08092233 L7.26485847,5.08092233 L7.26485847,5.05482524 C7.63437819,4.50524272 8.29430162,3.72014563 9.77141531,3.72014563 C11.6014594,3.7201165 12.9733666,4.87459223 12.9733666,7.35562136 Z M1.5739652,0.0162524272 C0.622401392,0.0162524272 0,0.618961165 0,1.41154369 C0,2.18685437 0.604394432,2.80785437 1.5370464,2.80785437 L1.55562645,2.80785437 C2.52561949,2.80785437 3.12886775,2.18697087 3.12886775,1.41154369 C3.11058933,0.618961165 2.52561949,0.0162524272 1.5739652,0.0162524272 Z M0.165199536,11.9871845 L2.94569142,11.9871845 L2.94569142,3.90990291 L0.165199536,3.90990291 L0.165199536,11.9871845 Z" id="LinkedIn"></path>
            </g>
        </g>
        <g id="email" transform="translate(155.000000, 0.000000)">
            <rect id="Rectangle" fill="#E0B26B" x="0" y="0" width="30" height="30" rx="1"></rect>
            <g id="message" transform="translate(6.000000, 9.000000)" fill="#FFFFFF" fill-rule="nonzero" stroke="#FFFFFF" stroke-width="0.8">
                <path d="M17.2528302,0 L0.741347709,0 C0.331908356,0 0,0.343481172 0,0.767196653 L0,11.2107113 C0,11.6344268 0.331908356,11.9779079 0.741347709,11.9779079 L17.2528302,11.9779079 C17.6622695,11.9779079 17.9941779,11.6344268 17.9941779,11.2107113 L17.9941779,0.767196653 C17.9941779,0.343481172 17.6622695,0 17.2528302,0 Z M0.741347709,0.60251046 L17.2528302,0.60251046 C17.3225013,0.602861925 17.3838275,0.650058577 17.4042049,0.718995816 L8.99708895,6.15364017 L0.589973046,0.718995816 C0.610350404,0.650058577 0.67167655,0.602861925 0.741347709,0.60251046 Z M0.582210243,1.40585774 L6.62943396,5.31414226 L0.582210243,10.2788285 L0.582210243,1.40585774 Z M17.4119677,11.2066946 C17.4119677,11.2976736 17.3406954,11.3713808 17.2528302,11.3713808 L0.741347709,11.3713808 C0.65348248,11.3713808 0.582210243,11.2976234 0.582210243,11.2066946 L0.582210243,11.0460251 L7.15342318,5.6716318 L8.84183288,6.7641841 C8.93668464,6.82609205 9.05749326,6.82609205 9.15234501,6.7641841 L10.8407547,5.6716318 L17.4119677,11.0460251 L17.4119677,11.2066946 Z M17.4119677,10.2788285 L11.3492183,5.33020921 L17.4119677,1.44200837 L17.4119677,10.2788285 Z" id="Shape"></path>
            </g>
        </g>
        <g id="medium" transform="translate(124.000000, 0.000000)">
            <rect id="Rectangle-Copy-3" fill="#00B595" x="0" y="0" width="30" height="30" rx="1"></rect>
            <path d="M10.54155,12.0399765 C10.5577015,11.8853517 10.4968458,11.7325222 10.3776844,11.6284538 L9.16386555,10.2116402 L9.16386555,10 L12.9327731,10 L15.8459384,16.1904762 L18.4070962,10 L22,10 L22,10.2116402 L20.9621849,11.175779 C20.8727138,11.2418604 20.8283316,11.3504698 20.8468721,11.4579659 L20.8468721,18.5420341 C20.8283316,18.6495302 20.8727138,18.7581396 20.9621849,18.8242211 L21.9757236,19.7883598 L21.9757236,20 L16.8776844,20 L16.8776844,19.7883598 L17.9276378,18.8007055 C18.0308123,18.7007642 18.0308123,18.6713698 18.0308123,18.5185186 L18.0308123,12.792475 L15.111578,19.9764844 L14.7170868,19.9764844 L11.318394,12.792475 L11.318394,17.6072898 C11.290057,17.8097182 11.3594424,18.0135192 11.5065359,18.159906 L12.8720822,19.7648442 L12.8720822,19.9764844 L9,19.9764844 L9,19.7648442 L10.3655462,18.159906 C10.5115688,18.0132765 10.5769083,17.8081236 10.54155,17.6072898 L10.54155,12.0399765 Z" id="Shape" fill="#FFFFFF" fill-rule="nonzero"></path>
        </g>
    </g>
</svg>